<?xml version="1.0" encoding="UTF-8"?>
<svg id="Layer_1" data-name="Layer 1" xmlns="http://www.w3.org/2000/svg" viewBox="0 0 510 510">
  <defs>
    <style>
      .cls-1, .cls-2 {
        fill: #394ce2;
      }

      .cls-3 {
        fill: #fff;
      }

      .cls-2 {
        fill-rule: evenodd;
      }
    </style>
  </defs>
  <rect class="cls-3" x="0" y="0" width="510" height="510" rx="255" ry="255"/>
  <g>
    <path class="cls-1" d="M353.75,143.25v85.24h-197.43v-85.24h81.31v48.33h34.82v-48.33h81.31Z"/>
    <path class="cls-2" d="M353.75,322.98c0-4.34-1.69-8.25-4.7-11.43-2.94-2.89-7.12-4.63-11.31-4.63h-165.19c-4.19,0-8.37,1.66-11.31,4.63-2.94,2.89-4.7,7.02-4.7,11.43v27.71c0,4.34,1.69,8.25,4.7,11.43,2.94,2.89,7.12,4.63,11.31,4.63h165.19c4.19,0,8.37-1.66,11.31-4.63,2.94-2.89,4.7-7.02,4.7-11.43v-27.71ZM195.25,327.61c5.14,0,9.11,4.12,9.11,9.26s-4.19,9.26-9.11,9.26-9.11-4.12-9.11-9.26,4.19-9.26,9.11-9.26ZM227.57,327.61c5.14,0,9.11,4.12,9.11,9.26s-4.19,9.26-9.11,9.26-9.11-4.12-9.11-9.26,4.19-9.26,9.11-9.26ZM323.93,330h-27.62c-3.67,0-6.9,3.18-6.9,6.8s3.23,6.8,6.9,6.8h27.62c3.67,0,6.9-3.18,6.9-6.8s-3.23-6.8-6.9-6.8Z"/>
    <path class="cls-2" d="M353.75,235.79h-197.51v48.12c0,4.34,1.69,8.25,4.7,11.43,2.94,2.89,7.13,4.63,11.31,4.63h165.18c4.19,0,8.38-1.66,11.31-4.63,2.94-2.89,4.7-7.02,4.7-11.43v-48.12h.3ZM195.25,279.28c-5.14,0-9.11-4.12-9.11-9.26s4.19-9.26,9.11-9.26,9.11,4.12,9.11,9.26-4.19,9.26-9.11,9.26ZM227.57,279.28c-5.14,0-9.11-4.12-9.11-9.26s4.19-9.26,9.11-9.26,9.11,4.12,9.11,9.26-4.19,9.26-9.11,9.26ZM323.93,277.1h-27.62c-3.67,0-6.9-3.18-6.9-6.8s2.94-6.8,6.9-6.8h27.62c3.96,0,6.9,3.18,6.9,6.8s-2.94,6.8-6.9,6.8Z"/>
  </g>
</svg>